<svg width="29" height="30" viewBox="0 0 29 30" fill="none" xmlns="http://www.w3.org/2000/svg">
<path d="M6.67176 7.20349L3.67176 11.2035V25.2035C3.67176 25.7339 3.88247 26.2426 4.25755 26.6177C4.63262 26.9928 5.14133 27.2035 5.67176 27.2035H19.6718C20.2022 27.2035 20.7109 26.9928 21.086 26.6177C21.461 26.2426 21.6718 25.7339 21.6718 25.2035V11.2035L18.6718 7.20349H6.67176Z" stroke="#818AF9" stroke-width="2" stroke-linecap="round" stroke-linejoin="round"/>
<path d="M3.67176 11.2035H21.6718" stroke="#818AF9" stroke-width="2" stroke-linecap="round" stroke-linejoin="round"/>
<path d="M16.6718 15.2035C16.6718 16.2644 16.2503 17.2818 15.5002 18.0319C14.75 18.7821 13.7326 19.2035 12.6718 19.2035C11.6109 19.2035 10.5935 18.7821 9.84333 18.0319C9.09319 17.2818 8.67176 16.2644 8.67176 15.2035" stroke="#818AF9" stroke-width="2" stroke-linecap="round" stroke-linejoin="round"/>
<circle cx="22.1717" cy="7.29675" r="6.5" fill="#EF6497"/>
<path d="M20.1083 9.83349C21.4216 8.82682 22.2849 8.07682 22.6983 7.58349C23.1183 7.08349 23.3283 6.60016 23.3283 6.13349C23.3283 5.52016 22.9883 5.21349 22.3083 5.21349C21.7616 5.21349 21.1149 5.45349 20.3683 5.93349L19.9383 4.57349C20.2783 4.34682 20.6883 4.16349 21.1683 4.02349C21.6549 3.87682 22.1183 3.80349 22.5583 3.80349C23.3649 3.80349 23.9849 3.99682 24.4183 4.38349C24.8516 4.76349 25.0683 5.29349 25.0683 5.97349C25.0683 6.56016 24.8816 7.12349 24.5083 7.66349C24.1416 8.19682 23.4183 8.91349 22.3383 9.81349V9.83349H25.1083V11.2035H20.1083V9.83349Z" fill="white"/>
</svg>
