<svg width="15" height="15" viewBox="0 0 15 15" fill="none" xmlns="http://www.w3.org/2000/svg">
<g clip-path="url(#clip0_1_112)">
<path d="M12.9217 6.62988C12.9217 10.7132 7.67174 14.2132 7.67174 14.2132C7.67174 14.2132 2.42175 10.7132 2.42175 6.62988C2.42175 5.2375 2.97487 3.90214 3.95943 2.91757C4.944 1.93301 6.27936 1.37988 7.67174 1.37988C9.06413 1.37988 10.3995 1.93301 11.3841 2.91757C12.3686 3.90214 12.9217 5.2375 12.9217 6.62988Z" stroke="#ACA3A3" stroke-linecap="round" stroke-linejoin="round"/>
<path d="M7.67175 8.37988C8.63824 8.37988 9.42175 7.59638 9.42175 6.62988C9.42175 5.66338 8.63824 4.87988 7.67175 4.87988C6.70525 4.87988 5.92175 5.66338 5.92175 6.62988C5.92175 7.59638 6.70525 8.37988 7.67175 8.37988Z" stroke="#ACA3A3" stroke-linecap="round" stroke-linejoin="round"/>
</g>
<defs>
<clipPath id="clip0_1_112">
<rect width="14" height="14" fill="white" transform="translate(0.671745 0.796722)"/>
</clipPath>
</defs>
</svg>
