<svg width="25" height="25" viewBox="0 0 25 25" fill="none" xmlns="http://www.w3.org/2000/svg">
<path d="M21.6717 12.2967C21.6752 13.6166 21.3668 14.9186 20.7717 16.0967C20.0662 17.5085 18.9815 18.6959 17.6392 19.526C16.2969 20.3561 14.75 20.7961 13.1717 20.7967C11.8519 20.8002 10.5499 20.4918 9.37174 19.8967L3.67174 21.7967L5.57174 16.0967C4.97667 14.9186 4.6683 13.6166 4.67174 12.2967C4.67235 10.7185 5.11235 9.17157 5.94246 7.82927C6.77257 6.48697 7.95999 5.40229 9.37174 4.69672C10.5499 4.10165 11.8519 3.79328 13.1717 3.79672H13.6717C15.7561 3.91171 17.7248 4.79148 19.2009 6.26758C20.677 7.74368 21.5567 9.71237 21.6717 11.7967V12.2967Z" stroke="#BFBFBF" stroke-width="2" stroke-linecap="round" stroke-linejoin="round"/>
</svg>
