<svg width="11" height="11" viewBox="0 0 11 11" fill="none" xmlns="http://www.w3.org/2000/svg">
<g clip-path="url(#clip0_1_104)">
<path d="M9.18189 10.7967C8.99272 10.7967 8.80844 10.7577 8.62905 10.6795C8.44966 10.6014 8.31757 10.5265 8.23277 10.4549C8.14797 10.3833 8.04686 10.2889 7.92944 10.1717C7.51196 10.5884 6.88574 10.7967 6.05077 10.7967H1.3541C1.2693 10.7967 1.19591 10.7658 1.13394 10.7039C1.07197 10.6421 1.04099 10.5689 1.04099 10.4842C1.04099 10.3996 1.07197 10.3263 1.13394 10.2645C1.19591 10.2026 1.2693 10.1717 1.3541 10.1717C1.43238 10.1717 1.52533 10.0985 1.63296 9.952C1.7406 9.80551 1.84334 9.61996 1.94118 9.39535C2.03903 9.17075 2.1222 8.90219 2.19069 8.58969C2.25919 8.27719 2.29343 7.9712 2.29343 7.67172C2.29343 7.50245 2.27223 7.35922 2.22983 7.24203C2.18743 7.12485 2.13525 7.02394 2.07328 6.9393C2.01131 6.85466 1.94934 6.76189 1.88737 6.66098C1.8254 6.56007 1.77321 6.41033 1.73081 6.21176C1.68841 6.01319 1.66721 5.77068 1.66721 5.48422C1.66721 5.31495 1.68841 5.1766 1.73081 5.06918C1.77321 4.96176 1.8254 4.88038 1.88737 4.82504C1.94934 4.7697 2.01131 4.71274 2.07328 4.65414C2.13525 4.59555 2.18743 4.50603 2.22983 4.38559C2.27223 4.26515 2.29343 4.11052 2.29343 3.92172C2.29343 3.50506 2.08469 3.29672 1.66721 3.29672C1.37367 3.29672 1.09154 3.18442 0.820831 2.95981C0.55012 2.7352 0.414764 2.535 0.414764 2.35922C0.414764 2.20948 0.484888 2.06788 0.625136 1.93442C0.765384 1.80095 0.904001 1.73422 1.04099 1.73422C1.15188 1.73422 1.25462 1.70167 1.34921 1.63657C1.44379 1.57146 1.53349 1.49334 1.61829 1.40219C1.70309 1.31105 1.79604 1.2199 1.89715 1.12875C1.99826 1.03761 2.13525 0.959483 2.30811 0.894379C2.48097 0.829274 2.68482 0.796722 2.91966 0.796722C3.22625 0.796722 3.47576 0.83253 3.66819 0.904144C3.86062 0.975759 4.00413 1.06853 4.09872 1.18246C4.1933 1.2964 4.26995 1.4559 4.32866 1.66098C4.38737 1.86606 4.42814 2.06951 4.45097 2.27133C4.4738 2.47315 4.51457 2.73032 4.57328 3.04282C4.63199 3.35532 4.707 3.64828 4.79833 3.92172C4.92227 4.29282 5.21418 4.76645 5.67406 5.34262C6.13394 5.91879 6.46825 6.27849 6.677 6.42172C7.51196 6.97511 7.92944 7.80844 7.92944 8.92172C7.92944 9.24073 8.11535 9.52882 8.48717 9.78598C8.85899 10.0431 9.2993 10.1717 9.80811 10.1717C9.97771 10.1717 10.1767 10.1392 10.405 10.0741C10.3463 10.3019 10.2028 10.4793 9.97445 10.6063C9.74614 10.7332 9.48195 10.7967 9.18189 10.7967ZM3.54588 7.67172C3.52631 7.77589 3.50022 7.91098 3.4676 8.077C3.43499 8.24301 3.36486 8.49529 3.25723 8.83383C3.1496 9.17237 3.03707 9.41 2.91966 9.54672H4.1721C4.1721 9.26677 4.13949 9.02426 4.07426 8.81918C4.00902 8.6141 3.93727 8.46599 3.85899 8.37485C3.78071 8.2837 3.70896 8.17791 3.64373 8.05746C3.5785 7.93702 3.54588 7.80844 3.54588 7.67172Z" fill="#818AF9"/>
</g>
<defs>
<clipPath id="clip0_1_104">
<rect width="10" height="10" fill="white" transform="translate(0.410732 0.796722)"/>
</clipPath>
</defs>
</svg>
