<svg width="25" height="25" viewBox="0 0 25 25" fill="none" xmlns="http://www.w3.org/2000/svg">
<g clip-path="url(#clip0_1_126)">
<path d="M21.5117 5.40672C21.001 4.89572 20.3945 4.49036 19.7271 4.2138C19.0596 3.93724 18.3442 3.79489 17.6217 3.79489C16.8992 3.79489 16.1838 3.93724 15.5164 4.2138C14.8489 4.49036 14.2425 4.89572 13.7317 5.40672L12.6717 6.46672L11.6117 5.40672C10.58 4.37502 9.18077 3.79543 7.72173 3.79543C6.2627 3.79543 4.86343 4.37502 3.83173 5.40672C2.80004 6.43841 2.22044 7.83768 2.22044 9.29672C2.22044 10.7557 2.80004 12.155 3.83173 13.1867L4.89173 14.2467L12.6717 22.0267L20.4517 14.2467L21.5117 13.1867C22.0227 12.676 22.4281 12.0695 22.7046 11.4021C22.9812 10.7346 23.1236 10.0192 23.1236 9.29672C23.1236 8.57423 22.9812 7.85882 22.7046 7.19136C22.4281 6.5239 22.0227 5.91747 21.5117 5.40672V5.40672Z" stroke="#BFBFBF" stroke-width="2" stroke-linecap="round" stroke-linejoin="round"/>
</g>
<defs>
<clipPath id="clip0_1_126">
<rect width="24" height="24" fill="white" transform="translate(0.671738 0.796722)"/>
</clipPath>
</defs>
</svg>
