<svg width="10" height="11" viewBox="0 0 10 11" fill="none" xmlns="http://www.w3.org/2000/svg">
<g clip-path="url(#clip0_1_102)">
<path d="M8.78653 5.79672C8.78653 6.00506 8.89056 6.42172 9.09863 7.04672C9.3067 7.67172 9.41074 8.08839 9.41074 8.29672C9.41074 8.7199 9.34734 9.12029 9.22055 9.49789C9.09376 9.8755 8.90844 10.1864 8.66461 10.4305C8.42078 10.6747 8.14931 10.7967 7.8502 10.7967H3.4807C3.39617 10.7967 3.32302 10.7658 3.26125 10.7039C3.19948 10.6421 3.1686 10.5689 3.1686 10.4842C3.1686 10.3996 3.19948 10.3263 3.26125 10.2645C3.32302 10.2026 3.39617 10.1717 3.4807 10.1717C3.57173 10.1717 3.64651 10.1424 3.70503 10.0838C3.76355 10.0252 3.79281 9.95037 3.79281 9.85922C3.79281 9.68995 3.72779 9.49301 3.59774 9.2684C3.4677 9.04379 3.31164 8.81267 3.12958 8.57504C2.94752 8.33741 2.76546 8.09164 2.58339 7.83774C2.40133 7.58383 2.24528 7.30388 2.11523 6.99789C1.98519 6.6919 1.92017 6.39568 1.92017 6.10922C1.92017 5.62094 2.11523 5.21729 2.50537 4.89828C2.42734 4.66391 2.23227 4.54672 1.92017 4.54672C1.7316 4.54672 1.53491 4.47999 1.33009 4.34653C1.12527 4.21306 0.964338 4.07309 0.847298 3.92661C0.730258 3.78012 0.671738 3.67433 0.671738 3.60922C0.671738 3.52459 0.702623 3.45134 0.764395 3.3895C0.826166 3.32765 0.899316 3.29672 0.983845 3.29672C1.03586 3.29672 1.09113 3.25115 1.14965 3.16C1.20817 3.06886 1.27482 2.95493 1.3496 2.81821C1.42437 2.68149 1.51053 2.54314 1.60806 2.40317C1.70559 2.26319 1.83564 2.13299 1.99819 2.01254C2.16075 1.8921 2.34281 1.80909 2.54438 1.76352V0.796722C2.69393 0.796722 2.86949 0.912282 3.07106 1.1434C3.27263 1.37452 3.40268 1.61378 3.4612 1.86118C3.7733 1.99138 4.01063 2.21762 4.17319 2.53989C4.33575 2.86215 4.41702 3.2186 4.41702 3.60922C4.41702 3.79802 4.45766 3.97706 4.53894 4.14633C4.62022 4.3156 4.73563 4.46697 4.88519 4.60043C5.03474 4.7339 5.15665 4.83481 5.25094 4.90317C5.34522 4.97153 5.46388 5.04802 5.60693 5.13266C5.63294 5.15219 5.65245 5.16521 5.66545 5.17172C6.04258 5.38657 6.35469 5.5949 6.60178 5.79672C7.05043 6.16782 7.42268 6.63331 7.71853 7.19321C8.01439 7.7531 8.16231 8.22511 8.16231 8.60922C8.16231 8.63526 8.16556 8.66456 8.17206 8.69711C8.17857 8.72966 8.20783 8.77524 8.25985 8.83383C8.31186 8.89243 8.38339 8.92172 8.47442 8.92172C8.56545 8.92172 8.64023 8.87127 8.69875 8.77035C8.75727 8.66944 8.78653 8.51157 8.78653 8.29672C8.78653 8.06886 8.74426 7.84099 8.65973 7.61313C8.5752 7.38526 8.47117 7.16879 8.34763 6.96371C8.22408 6.75864 8.10054 6.54542 7.977 6.32407C7.85346 6.10271 7.74942 5.83741 7.66489 5.52817C7.58036 5.21892 7.5381 4.89177 7.5381 4.54672C7.5381 4.23422 7.66814 3.94776 7.92823 3.68735C8.18832 3.42693 8.47442 3.29672 8.78653 3.29672C8.96209 3.29672 9.11001 3.35694 9.2303 3.47739C9.35059 3.59783 9.41074 3.74594 9.41074 3.92172C9.41074 4.02589 9.39123 4.11866 9.35222 4.20004C9.31321 4.28142 9.26281 4.35629 9.20104 4.42465C9.13927 4.49301 9.10514 4.5337 9.09863 4.54672C8.89056 4.89177 8.78653 5.30844 8.78653 5.79672Z" fill="#818AF9"/>
</g>
<defs>
<clipPath id="clip0_1_102">
<rect width="8.739" height="10" fill="white" transform="translate(0.671738 0.796722)"/>
</clipPath>
</defs>
</svg>
